<svg id="그룹_28" data-name="그룹 28" xmlns="http://www.w3.org/2000/svg" width="48.935" height="48.936" viewBox="0 0 48.935 48.936">
  <path id="패스_4" data-name="패스 4" d="M705.018,693.787a5.6,5.6,0,1,0,5.6,5.6A5.6,5.6,0,0,0,705.018,693.787Z" transform="translate(-680.553 -674.833)" fill="#fff"/>
  <path id="패스_5" data-name="패스 5" d="M702.028,671.828A24.468,24.468,0,1,0,726.5,696.3,24.468,24.468,0,0,0,702.028,671.828Zm16.64,31.5a9.606,9.606,0,0,1-9.607,9.605H694.995a9.605,9.605,0,0,1-9.607-9.605V689.263a9.606,9.606,0,0,1,9.607-9.607h14.066a9.607,9.607,0,0,1,9.607,9.607Z" transform="translate(-677.561 -671.828)" fill="#fff"/>
  <path id="패스_6" data-name="패스 6" d="M710.952,684.544h-14.4a6.377,6.377,0,0,0-6.376,6.378v14.4a6.377,6.377,0,0,0,6.376,6.376h14.4a6.377,6.377,0,0,0,6.377-6.376v-14.4A6.377,6.377,0,0,0,710.952,684.544Zm-7.2,22.21a8.635,8.635,0,1,1,8.636-8.635A8.635,8.635,0,0,1,703.754,706.754Zm8.923-15.587a2.011,2.011,0,1,1,2.011-2.011A2.011,2.011,0,0,1,712.677,691.167Z" transform="translate(-679.288 -673.568)" fill="#fff"/>
</svg>
