<svg id="그룹_29" data-name="그룹 29" xmlns="http://www.w3.org/2000/svg" width="48.934" height="48.935" viewBox="0 0 48.934 48.935">
  <path id="패스_7" data-name="패스 7" d="M618.445,503.17a24.467,24.467,0,1,0,24.467,24.468A24.467,24.467,0,0,0,618.445,503.17Zm0,36.787a23.68,23.68,0,0,1-3.378-.246l-7.608,5.137a.517.517,0,0,1-.71-.032.548.548,0,0,1-.133-.563l1.77-6.606c-5.228-2.638-8.713-7.251-8.713-12.519,0-8.19,8.405-14.826,18.772-14.826s18.773,6.636,18.773,14.826S628.809,539.957,618.443,539.957Z" transform="translate(-593.977 -503.17)" fill="#fff"/>
  <path id="패스_8" data-name="패스 8" d="M612.706,525.342a.855.855,0,0,0,.312-.706,1.042,1.042,0,0,0-.013-.2.808.808,0,0,0-.378-.549,1.335,1.335,0,0,0-.725-.193h-6.246a1.277,1.277,0,0,0-.8.252.823.823,0,0,0-.32.694c.007.075.019.148.03.21a.8.8,0,0,0,.375.547,1.342,1.342,0,0,0,.725.2H607.7l0,7.038a1.131,1.131,0,0,0,.019.288,1.013,1.013,0,0,0,.363.612,1.1,1.1,0,0,0,.691.223,1.027,1.027,0,0,0,.791-.309,1.126,1.126,0,0,0,.3-.814l0-7.038h2.043A1.256,1.256,0,0,0,612.706,525.342Z" transform="translate(-595.421 -505.978)" fill="#fff"/>
  <path id="패스_9" data-name="패스 9" d="M619.832,531.874l-2.609-7.564a1.12,1.12,0,0,0-.447-.653,1.355,1.355,0,0,0-.7-.171h-.521a1.24,1.24,0,0,0-.66.159.954.954,0,0,0-.393.527l-2.8,7.7c-.055.153-.106.311-.147.464a1.206,1.206,0,0,0-.059.4,1.064,1.064,0,0,0,.021.231.907.907,0,0,0,.33.558,1.013,1.013,0,0,0,.64.2.9.9,0,0,0,.968-.617l.561-1.647H617.5l.558,1.647a.923.923,0,0,0,.971.617.975.975,0,0,0,.716-.287.955.955,0,0,0,.306-.7c-.005-.06-.018-.148-.039-.259A4.334,4.334,0,0,0,619.832,531.874ZM614.5,529.9l1.274-3.969h.027l1.229,3.969Z" transform="translate(-596.374 -505.95)" fill="#fff"/>
  <path id="패스_10" data-name="패스 10" d="M628.291,531.844a1.3,1.3,0,0,0-.729-.193H623.95l0-7.043a.986.986,0,0,0-.019-.285,1.03,1.03,0,0,0-.361-.612,1.07,1.07,0,0,0-.692-.224,1.039,1.039,0,0,0-.792.307,1.129,1.129,0,0,0-.3.814l0,7.622a3.17,3.17,0,0,0,.046.441.985.985,0,0,0,.409.666,1.413,1.413,0,0,0,.815.208h4.507a1.277,1.277,0,0,0,.8-.248.829.829,0,0,0,.319-.7,1.228,1.228,0,0,0-.03-.205A.823.823,0,0,0,628.291,531.844Z" transform="translate(-597.783 -505.95)" fill="#fff"/>
  <path id="패스_11" data-name="패스 11" d="M637.929,532.5a2.283,2.283,0,0,0-.312-.628l-.079-.125-2.627-4.162,2.22-2.425a2.012,2.012,0,0,0,.258-.361.868.868,0,0,0,.1-.412.3.3,0,0,1-.007-.091c-.009-.044-.014-.076-.015-.084a.806.806,0,0,0-.359-.527,1.111,1.111,0,0,0-.647-.2.808.808,0,0,0-.451.12,2.513,2.513,0,0,0-.412.372l-3.395,3.9-.005-3.274a1.168,1.168,0,0,0-.022-.285,1.01,1.01,0,0,0-.364-.612,1.065,1.065,0,0,0-.69-.224,1.041,1.041,0,0,0-.792.307,1.135,1.135,0,0,0-.294.814l0,7.991a1.365,1.365,0,0,0,.02.288,1.016,1.016,0,0,0,.362.612,1.1,1.1,0,0,0,.693.223,1.036,1.036,0,0,0,.792-.309,1.141,1.141,0,0,0,.3-.814l-.012-2.238,1.187-1.236,2.492,4.008a1.425,1.425,0,0,0,.423.47,1.086,1.086,0,0,0,.539.118,1.253,1.253,0,0,0,.787-.253.988.988,0,0,0,.324-.83.437.437,0,0,1,0-.071C637.935,532.536,637.93,532.509,637.929,532.5Z" transform="translate(-598.912 -505.95)" fill="#fff"/>
</svg>
