<svg id="그룹_30" data-name="그룹 30" xmlns="http://www.w3.org/2000/svg" width="48.935" height="48.935" viewBox="0 0 48.935 48.935">
  <path id="패스_12" data-name="패스 12" d="M865.454,594.2a24.468,24.468,0,1,0,24.469,24.467A24.468,24.468,0,0,0,865.454,594.2Zm14.026,24.632a54.226,54.226,0,0,1-.426,6.16c-.538,2.14-1.539,2.964-3.385,3.258-1.062.161-6.166.361-10.223.361l.019,0c-4.056,0-9.164-.2-10.225-.358-1.846-.294-2.851-1.119-3.384-3.258a53.864,53.864,0,0,1-.426-6.16V618.5a53.748,53.748,0,0,1,.426-6.155c.533-2.14,1.537-2.969,3.384-3.264,1.061-.159,6.162-.36,10.214-.36s9.156.2,10.214.36c1.846.294,2.848,1.119,3.385,3.264a54.11,54.11,0,0,1,.426,6.155Z" transform="translate(-840.987 -594.199)" fill="#fff"/>
  <path id="패스_13" data-name="패스 13" d="M865.437,625.569l6.725-3.678-6.725-3.512Z" transform="translate(-844.333 -597.508)" fill="#fff"/>
</svg>
